# xmcd CD database file
#
# Track frame offsets:
#	150
#	36601
#	95865
#	123411
#	149559
#	175060
#	212299
#	238231
#	255135
#	277598
#	310300
#
# Disc length: 4652 seconds
#
# Revision: 1
# Processed by: cddbd v1.5.1PL0 Copyright (c) Steve Scherf et al.
# Submitted via: CDex 1.51
#
DISCID=9b122a0b
DTITLE=Beogradski Jazz festival - 27-31 X 2005
DYEAR=2005
DGENRE=Jazz
TTITLE0=info
TTITLE1=Dave Holand - what goes around
TTITLE2=Al Foster Quartet - mixed roots
TTITLE3=Dusko Gojkovic - quo vadis samba
TTITLE4=Danys Battiste - naima
TTITLE5=Nicola Conte - new standards
TTITLE6=Charlie Hunter Trio - thursday 12th
TTITLE7=Vicinius Cantuaria - sanfona
TTITLE8=Moreno Veloso - deusa do amor
TTITLE9=World Saxophone Quartet - freedom
TTITLE10=Dave Liebman - walkin'
EXTD=YEAR: 2005
EXTT0=
EXTT1=
EXTT2=
EXTT3=
EXTT4=
EXTT5=
EXTT6=
EXTT7=
EXTT8=
EXTT9=
EXTT10=
PLAYORDER=
